<svg width="128" height="128" viewBox="0 0 128 128" fill="none" xmlns="http://www.w3.org/2000/svg">
<circle cx="64" cy="64" r="64" fill="#007BFF"/>
<path d="M36 46C36 43.7909 37.7909 42 40 42V42C44.4183 42 48 45.5817 48 50V98C48 100.828 48 102.243 47.1213 103.121C46.2426 104 44.8284 104 42 104V104C39.1716 104 37.7574 104 36.8787 103.121C36 102.243 36 100.828 36 98V46Z" fill="white"/>
<path d="M58 62C58 59.1716 58 57.7574 58.8787 56.8787C59.7574 56 61.1716 56 64 56V56C66.8284 56 68.2426 56 69.1213 56.8787C70 57.7574 70 59.1716 70 62V98C70 100.828 70 102.243 69.1213 103.121C68.2426 104 66.8284 104 64 104V104C61.1716 104 59.7574 104 58.8787 103.121C58 102.243 58 100.828 58 98V62Z" fill="white"/>
<path d="M80 32C80 27.5817 83.5817 24 88 24V24C90.2091 24 92 25.7909 92 28V98C92 100.828 92 102.243 91.1213 103.121C90.2426 104 88.8284 104 86 104V104C83.1716 104 81.7574 104 80.8787 103.121C80 102.243 80 100.828 80 98V32Z" fill="white"/>
<path d="M58 39C58 38.071 58 37.6065 58.0616 37.2178C58.4004 35.0784 60.0784 33.4004 62.2178 33.0616C62.6065 33 63.071 33 64 33V33C64.929 33 65.3935 33 65.7822 33.0616C67.9216 33.4004 69.5996 35.0784 69.9384 37.2178C70 37.6065 70 38.071 70 39V45C70 47.8284 70 49.2426 69.1213 50.1213C68.2426 51 66.8284 51 64 51V51C61.1716 51 59.7574 51 58.8787 50.1213C58 49.2426 58 47.8284 58 45V39Z" fill="white"/>
</svg>
